STARTFONT 2.1
FONT -Monotype-Arial Narrow-Regular-R-Normal--14-140-75-75-P-54-iso8859-4
SIZE 14 75 75
FONTBOUNDINGBOX 15 18 -3 -4

STARTPROPERTIES 24
FOUNDRY "Monotype"
FAMILY_NAME "Arial Narrow"
WEIGHT_NAME "Regular"
SLANT "R"
SETWIDTH_NAME "Normal"
ADD_STYLE_NAME ""
PIXEL_SIZE 14
POINT_SIZE 140
RESOLUTION_X 75
RESOLUTION_Y 75
SPACING "P"
AVERAGE_WIDTH 54
CHARSET_REGISTRY "iso8859"
CHARSET_ENCODING "4"
FACE_NAME "Arial Narrow ISO Latin4"
_DEC_DEVICE_FONTNAMES "PS=arialnarrow-lat4"
COPYRIGHT "Copyright (c) 1994 Monotype Typography Ltd."
CAP_HEIGHT 12
X_HEIGHT 9
WEIGHT 10
QUAD_WIDTH 8
DEFAULT_CHAR 160
FONT_DESCENT 4
FONT_ASCENT 14
ENDPROPERTIES

CHARS 191

STARTCHAR space
ENCODING 32
SWIDTH 228 0
DWIDTH 3 0
BBX 0 0 0 0
BITMAP
ENDCHAR

STARTCHAR exclam
ENCODING 33
SWIDTH 228 0
DWIDTH 3 0
BBX 1 11 1 0
BITMAP
80
80
80
80
80
80
80
80
00
80
80
ENDCHAR

STARTCHAR quotedbl
ENCODING 34
SWIDTH 291 0
DWIDTH 4 0
BBX 3 4 1 7
BITMAP
A0
A0
A0
A0
ENDCHAR

STARTCHAR numbersign
ENCODING 35
SWIDTH 456 0
DWIDTH 7 0
BBX 7 11 0 0
BITMAP
24
24
24
FE
24
24
24
FE
48
48
48
ENDCHAR

STARTCHAR dollar
ENCODING 36
SWIDTH 456 0
DWIDTH 7 0
BBX 5 14 1 -2
BITMAP
20
70
A8
A8
A0
A0
70
28
28
A8
A8
70
20
20
ENDCHAR

STARTCHAR percent
ENCODING 37
SWIDTH 729 0
DWIDTH 11 0
BBX 10 12 0 -1
BITMAP
6100
9100
9200
9200
9200
6400
0580
0A40
0A40
0A40
1240
1180
ENDCHAR

STARTCHAR ampersand
ENCODING 38
SWIDTH 547 0
DWIDTH 8 0
BBX 7 11 1 0
BITMAP
30
48
48
48
30
50
8A
8A
84
8C
76
ENDCHAR

STARTCHAR quoteright
ENCODING 39
SWIDTH 182 0
DWIDTH 3 0
BBX 2 4 1 7
BITMAP
C0
40
40
80
ENDCHAR

STARTCHAR parenleft
ENCODING 40
SWIDTH 273 0
DWIDTH 4 0
BBX 3 14 1 -3
BITMAP
20
40
40
40
80
80
80
80
80
80
40
40
40
20
ENDCHAR

STARTCHAR parenright
ENCODING 41
SWIDTH 273 0
DWIDTH 4 0
BBX 3 14 1 -3
BITMAP
80
40
40
40
20
20
20
20
20
20
40
40
40
80
ENDCHAR

STARTCHAR asterisk
ENCODING 42
SWIDTH 319 0
DWIDTH 5 0
BBX 5 5 0 6
BITMAP
20
A8
F8
70
88
ENDCHAR

STARTCHAR plus
ENCODING 43
SWIDTH 479 0
DWIDTH 7 0
BBX 7 7 0 2
BITMAP
10
10
10
FE
10
10
10
ENDCHAR

STARTCHAR comma
ENCODING 44
SWIDTH 228 0
DWIDTH 3 0
BBX 2 4 1 -2
BITMAP
C0
40
40
80
ENDCHAR

STARTCHAR minus
ENCODING 45
SWIDTH 479 0
DWIDTH 7 0
BBX 6 1 1 5
BITMAP
FC
ENDCHAR

STARTCHAR period
ENCODING 46
SWIDTH 228 0
DWIDTH 3 0
BBX 1 2 1 0
BITMAP
80
80
ENDCHAR

STARTCHAR slash
ENCODING 47
SWIDTH 228 0
DWIDTH 3 0
BBX 3 12 0 -1
BITMAP
20
20
20
20
40
40
40
40
80
80
80
80
ENDCHAR

STARTCHAR zero
ENCODING 48
SWIDTH 456 0
DWIDTH 7 0
BBX 5 11 1 0
BITMAP
70
88
88
88
88
88
88
88
88
88
70
ENDCHAR

STARTCHAR one
ENCODING 49
SWIDTH 456 0
DWIDTH 7 0
BBX 4 11 1 0
BITMAP
10
30
50
90
10
10
10
10
10
10
10
ENDCHAR

STARTCHAR two
ENCODING 50
SWIDTH 456 0
DWIDTH 7 0
BBX 5 11 1 0
BITMAP
70
88
88
08
08
10
20
20
40
80
F8
ENDCHAR

STARTCHAR three
ENCODING 51
SWIDTH 456 0
DWIDTH 7 0
BBX 5 11 1 0
BITMAP
70
88
88
08
08
30
08
08
88
88
70
ENDCHAR

STARTCHAR four
ENCODING 52
SWIDTH 456 0
DWIDTH 7 0
BBX 6 11 1 0
BITMAP
08
18
18
28
28
48
88
FC
08
08
08
ENDCHAR

STARTCHAR five
ENCODING 53
SWIDTH 456 0
DWIDTH 7 0
BBX 5 11 1 0
BITMAP
78
40
40
80
F0
88
08
08
88
88
70
ENDCHAR

STARTCHAR six
ENCODING 54
SWIDTH 456 0
DWIDTH 7 0
BBX 5 11 1 0
BITMAP
70
88
88
80
B0
C8
88
88
88
88
70
ENDCHAR

STARTCHAR seven
ENCODING 55
SWIDTH 456 0
DWIDTH 7 0
BBX 5 11 1 0
BITMAP
F8
08
10
10
20
20
20
40
40
40
40
ENDCHAR

STARTCHAR eight
ENCODING 56
SWIDTH 456 0
DWIDTH 7 0
BBX 5 11 1 0
BITMAP
70
88
88
88
70
88
88
88
88
88
70
ENDCHAR

STARTCHAR nine
ENCODING 57
SWIDTH 456 0
DWIDTH 7 0
BBX 5 11 1 0
BITMAP
70
88
88
88
88
98
68
08
88
88
70
ENDCHAR

STARTCHAR colon
ENCODING 58
SWIDTH 228 0
DWIDTH 3 0
BBX 1 8 1 0
BITMAP
80
80
00
00
00
00
80
80
ENDCHAR

STARTCHAR semicolon
ENCODING 59
SWIDTH 228 0
DWIDTH 3 0
BBX 2 10 1 -2
BITMAP
80
80
00
00
00
00
C0
40
40
80
ENDCHAR

STARTCHAR less
ENCODING 60
SWIDTH 479 0
DWIDTH 7 0
BBX 6 7 1 2
BITMAP
04
18
60
80
60
18
04
ENDCHAR

STARTCHAR equal
ENCODING 61
SWIDTH 479 0
DWIDTH 7 0
BBX 6 4 1 3
BITMAP
FC
00
00
FC
ENDCHAR

STARTCHAR greater
ENCODING 62
SWIDTH 479 0
DWIDTH 7 0
BBX 6 7 1 2
BITMAP
80
60
18
04
18
60
80
ENDCHAR

STARTCHAR question
ENCODING 63
SWIDTH 456 0
DWIDTH 7 0
BBX 5 11 1 0
BITMAP
70
88
88
08
10
20
20
20
00
20
20
ENDCHAR

STARTCHAR at
ENCODING 64
SWIDTH 832 0
DWIDTH 12 0
BBX 11 14 1 -3
BITMAP
1F00
3080
4040
4D20
9320
B120
A120
A320
A240
B640
5B80
4020
20C0
1F80
ENDCHAR

STARTCHAR A
ENCODING 65
SWIDTH 547 0
DWIDTH 8 0
BBX 8 11 0 0
BITMAP
18
18
24
24
24
42
7E
42
81
81
81
ENDCHAR

STARTCHAR B
ENCODING 66
SWIDTH 547 0
DWIDTH 8 0
BBX 6 11 1 0
BITMAP
F8
84
84
84
84
F8
84
84
84
84
F8
ENDCHAR

STARTCHAR C
ENCODING 67
SWIDTH 592 0
DWIDTH 9 0
BBX 7 11 1 0
BITMAP
38
44
82
80
80
80
80
80
82
44
38
ENDCHAR

STARTCHAR D
ENCODING 68
SWIDTH 592 0
DWIDTH 9 0
BBX 7 11 1 0
BITMAP
F8
84
82
82
82
82
82
82
82
84
F8
ENDCHAR

STARTCHAR E
ENCODING 69
SWIDTH 547 0
DWIDTH 8 0
BBX 6 11 1 0
BITMAP
FC
80
80
80
80
FC
80
80
80
80
FC
ENDCHAR

STARTCHAR F
ENCODING 70
SWIDTH 501 0
DWIDTH 8 0
BBX 6 11 1 0
BITMAP
FC
80
80
80
80
F8
80
80
80
80
80
ENDCHAR

STARTCHAR G
ENCODING 71
SWIDTH 638 0
DWIDTH 10 0
BBX 8 11 1 0
BITMAP
3C
42
81
80
80
80
8F
81
81
41
3E
ENDCHAR

STARTCHAR H
ENCODING 72
SWIDTH 592 0
DWIDTH 9 0
BBX 7 11 1 0
BITMAP
82
82
82
82
82
FE
82
82
82
82
82
ENDCHAR

STARTCHAR I
ENCODING 73
SWIDTH 228 0
DWIDTH 3 0
BBX 1 11 1 0
BITMAP
80
80
80
80
80
80
80
80
80
80
80
ENDCHAR

STARTCHAR J
ENCODING 74
SWIDTH 410 0
DWIDTH 6 0
BBX 5 11 0 0
BITMAP
08
08
08
08
08
08
08
08
88
88
70
ENDCHAR

STARTCHAR K
ENCODING 75
SWIDTH 547 0
DWIDTH 8 0
BBX 7 11 1 0
BITMAP
82
84
88
90
A0
A0
D0
88
88
84
82
ENDCHAR

STARTCHAR L
ENCODING 76
SWIDTH 456 0
DWIDTH 7 0
BBX 5 11 1 0
BITMAP
80
80
80
80
80
80
80
80
80
80
F8
ENDCHAR

STARTCHAR M
ENCODING 77
SWIDTH 683 0
DWIDTH 10 0
BBX 8 11 1 0
BITMAP
81
81
C3
C3
A5
A5
A5
A5
99
99
99
ENDCHAR

STARTCHAR N
ENCODING 78
SWIDTH 592 0
DWIDTH 9 0
BBX 7 11 1 0
BITMAP
82
C2
C2
A2
A2
92
92
8A
86
86
82
ENDCHAR

STARTCHAR O
ENCODING 79
SWIDTH 638 0
DWIDTH 10 0
BBX 8 11 1 0
BITMAP
3C
42
81
81
81
81
81
81
81
42
3C
ENDCHAR

STARTCHAR P
ENCODING 80
SWIDTH 547 0
DWIDTH 8 0
BBX 6 11 1 0
BITMAP
F8
84
84
84
84
F8
80
80
80
80
80
ENDCHAR

STARTCHAR Q
ENCODING 81
SWIDTH 638 0
DWIDTH 10 0
BBX 9 12 1 -1
BITMAP
3C00
4200
8100
8100
8100
8100
8100
8100
8900
4600
3D00
0080
ENDCHAR

STARTCHAR R
ENCODING 82
SWIDTH 592 0
DWIDTH 9 0
BBX 8 11 1 0
BITMAP
FC
82
82
82
82
FC
88
84
84
82
81
ENDCHAR

STARTCHAR S
ENCODING 83
SWIDTH 547 0
DWIDTH 8 0
BBX 6 11 1 0
BITMAP
78
84
84
80
60
18
04
04
84
84
78
ENDCHAR

STARTCHAR T
ENCODING 84
SWIDTH 501 0
DWIDTH 7 0
BBX 7 11 0 0
BITMAP
FE
10
10
10
10
10
10
10
10
10
10
ENDCHAR

STARTCHAR U
ENCODING 85
SWIDTH 592 0
DWIDTH 9 0
BBX 7 11 1 0
BITMAP
82
82
82
82
82
82
82
82
82
44
38
ENDCHAR

STARTCHAR V
ENCODING 86
SWIDTH 547 0
DWIDTH 8 0
BBX 8 11 0 0
BITMAP
81
81
81
42
42
42
24
24
24
18
18
ENDCHAR

STARTCHAR W
ENCODING 87
SWIDTH 774 0
DWIDTH 13 0
BBX 11 11 1 0
BITMAP
8420
8420
8420
4A40
4A40
4A40
2A80
2A80
2A80
1100
1100
ENDCHAR

STARTCHAR X
ENCODING 88
SWIDTH 547 0
DWIDTH 8 0
BBX 8 11 0 0
BITMAP
81
42
24
24
18
18
24
24
42
42
81
ENDCHAR

STARTCHAR Y
ENCODING 89
SWIDTH 547 0
DWIDTH 7 0
BBX 7 11 0 0
BITMAP
82
82
44
44
28
28
10
10
10
10
10
ENDCHAR

STARTCHAR Z
ENCODING 90
SWIDTH 501 0
DWIDTH 8 0
BBX 6 11 1 0
BITMAP
FC
04
08
08
10
20
20
40
40
80
FC
ENDCHAR

STARTCHAR bracketleft
ENCODING 91
SWIDTH 228 0
DWIDTH 3 0
BBX 2 14 1 -3
BITMAP
C0
80
80
80
80
80
80
80
80
80
80
80
80
C0
ENDCHAR

STARTCHAR backslash
ENCODING 92
SWIDTH 228 0
DWIDTH 3 0
BBX 3 12 0 -1
BITMAP
80
80
80
80
40
40
40
40
20
20
20
20
ENDCHAR

STARTCHAR bracketright
ENCODING 93
SWIDTH 228 0
DWIDTH 3 0
BBX 2 14 1 -3
BITMAP
C0
40
40
40
40
40
40
40
40
40
40
40
40
C0
ENDCHAR

STARTCHAR asciicircum
ENCODING 94
SWIDTH 385 0
DWIDTH 6 0
BBX 5 6 1 5
BITMAP
20
20
50
50
88
88
ENDCHAR

STARTCHAR underscore
ENCODING 95
SWIDTH 456 0
DWIDTH 7 0
BBX 7 1 0 -2
BITMAP
FE
ENDCHAR

STARTCHAR quoteleft
ENCODING 96
SWIDTH 182 0
DWIDTH 3 0
BBX 2 4 1 7
BITMAP
40
80
80
C0
ENDCHAR

STARTCHAR a
ENCODING 97
SWIDTH 456 0
DWIDTH 7 0
BBX 5 8 1 0
BITMAP
70
88
08
38
48
88
98
68
ENDCHAR

STARTCHAR b
ENCODING 98
SWIDTH 456 0
DWIDTH 7 0
BBX 5 11 1 0
BITMAP
80
80
80
B0
C8
88
88
88
88
C8
B0
ENDCHAR

STARTCHAR c
ENCODING 99
SWIDTH 410 0
DWIDTH 6 0
BBX 5 8 1 0
BITMAP
70
88
88
80
80
88
88
70
ENDCHAR

STARTCHAR d
ENCODING 100
SWIDTH 456 0
DWIDTH 7 0
BBX 5 11 1 0
BITMAP
08
08
08
68
98
88
88
88
88
98
68
ENDCHAR

STARTCHAR e
ENCODING 101
SWIDTH 456 0
DWIDTH 7 0
BBX 5 8 1 0
BITMAP
70
88
88
F8
80
88
88
70
ENDCHAR

STARTCHAR f
ENCODING 102
SWIDTH 228 0
DWIDTH 3 0
BBX 4 11 0 0
BITMAP
30
40
40
E0
40
40
40
40
40
40
40
ENDCHAR

STARTCHAR g
ENCODING 103
SWIDTH 456 0
DWIDTH 7 0
BBX 5 11 1 -3
BITMAP
68
98
88
88
88
88
98
68
08
88
70
ENDCHAR

STARTCHAR h
ENCODING 104
SWIDTH 456 0
DWIDTH 7 0
BBX 5 11 1 0
BITMAP
80
80
80
B0
C8
88
88
88
88
88
88
ENDCHAR

STARTCHAR i
ENCODING 105
SWIDTH 182 0
DWIDTH 3 0
BBX 1 11 1 0
BITMAP
80
80
00
80
80
80
80
80
80
80
80
ENDCHAR

STARTCHAR j
ENCODING 106
SWIDTH 182 0
DWIDTH 3 0
BBX 2 14 0 -3
BITMAP
40
40
00
40
40
40
40
40
40
40
40
40
40
80
ENDCHAR

STARTCHAR k
ENCODING 107
SWIDTH 410 0
DWIDTH 6 0
BBX 5 11 1 0
BITMAP
80
80
80
88
90
A0
A0
D0
90
88
88
ENDCHAR

STARTCHAR l
ENCODING 108
SWIDTH 182 0
DWIDTH 3 0
BBX 1 11 1 0
BITMAP
80
80
80
80
80
80
80
80
80
80
80
ENDCHAR

STARTCHAR m
ENCODING 109
SWIDTH 683 0
DWIDTH 9 0
BBX 7 8 1 0
BITMAP
AC
D2
92
92
92
92
92
92
ENDCHAR

STARTCHAR n
ENCODING 110
SWIDTH 456 0
DWIDTH 7 0
BBX 5 8 1 0
BITMAP
B0
C8
88
88
88
88
88
88
ENDCHAR

STARTCHAR o
ENCODING 111
SWIDTH 456 0
DWIDTH 7 0
BBX 5 8 1 0
BITMAP
70
88
88
88
88
88
88
70
ENDCHAR

STARTCHAR p
ENCODING 112
SWIDTH 456 0
DWIDTH 7 0
BBX 5 11 1 -3
BITMAP
B0
C8
88
88
88
88
C8
B0
80
80
80
ENDCHAR

STARTCHAR q
ENCODING 113
SWIDTH 456 0
DWIDTH 7 0
BBX 5 11 1 -3
BITMAP
68
98
88
88
88
88
98
68
08
08
08
ENDCHAR

STARTCHAR r
ENCODING 114
SWIDTH 273 0
DWIDTH 4 0
BBX 3 8 1 0
BITMAP
A0
C0
80
80
80
80
80
80
ENDCHAR

STARTCHAR s
ENCODING 115
SWIDTH 410 0
DWIDTH 6 0
BBX 4 8 1 0
BITMAP
60
90
80
60
10
10
90
60
ENDCHAR

STARTCHAR t
ENCODING 116
SWIDTH 228 0
DWIDTH 3 0
BBX 3 11 0 0
BITMAP
40
40
40
E0
40
40
40
40
40
40
20
ENDCHAR

STARTCHAR u
ENCODING 117
SWIDTH 456 0
DWIDTH 7 0
BBX 5 8 1 0
BITMAP
88
88
88
88
88
88
98
68
ENDCHAR

STARTCHAR v
ENCODING 118
SWIDTH 410 0
DWIDTH 6 0
BBX 6 8 0 0
BITMAP
84
84
84
48
48
48
30
30
ENDCHAR

STARTCHAR w
ENCODING 119
SWIDTH 592 0
DWIDTH 9 0
BBX 9 8 0 0
BITMAP
8880
8880
9480
5500
5500
5500
2200
2200
ENDCHAR

STARTCHAR x
ENCODING 120
SWIDTH 410 0
DWIDTH 6 0
BBX 6 8 0 0
BITMAP
84
48
48
30
30
48
48
84
ENDCHAR

STARTCHAR y
ENCODING 121
SWIDTH 410 0
DWIDTH 6 0
BBX 6 11 0 -3
BITMAP
84
84
48
48
48
30
10
10
10
20
40
ENDCHAR

STARTCHAR z
ENCODING 122
SWIDTH 410 0
DWIDTH 7 0
BBX 5 8 1 0
BITMAP
F8
10
20
20
40
40
80
F8
ENDCHAR

STARTCHAR braceleft
ENCODING 123
SWIDTH 274 0
DWIDTH 4 0
BBX 3 14 1 -3
BITMAP
20
40
40
40
40
40
80
80
40
40
40
40
40
20
ENDCHAR

STARTCHAR bar
ENCODING 124
SWIDTH 213 0
DWIDTH 3 0
BBX 1 15 1 -4
BITMAP
80
80
80
80
80
80
80
80
80
80
80
80
80
80
80
ENDCHAR

STARTCHAR braceright
ENCODING 125
SWIDTH 274 0
DWIDTH 4 0
BBX 3 14 1 -3
BITMAP
80
40
40
40
40
40
20
20
40
40
40
40
40
80
ENDCHAR

STARTCHAR asciitilde
ENCODING 126
SWIDTH 479 0
DWIDTH 7 0
BBX 6 2 1 4
BITMAP
64
98
ENDCHAR

STARTCHAR space
ENCODING 160
SWIDTH 228 0
DWIDTH 4 0
BBX 0 0 0 0
BITMAP
ENDCHAR

STARTCHAR Aogonek
ENCODING 161
SWIDTH 547 0
DWIDTH 8 0
BBX 10 14 0 -3
BITMAP
1800
1800
2400
2400
2400
4200
7E00
4200
8100
8100
8100
0100
0100
00C0
ENDCHAR

STARTCHAR afii240
ENCODING 162
SWIDTH 500 0
DWIDTH 6 0
BBX 5 8 1 0
BITMAP
88
90
A0
E0
A0
90
90
88
ENDCHAR

STARTCHAR Rcommaaccent
ENCODING 163
SWIDTH 592 0
DWIDTH 9 0
BBX 8 15 1 -4
BITMAP
FC
82
82
82
82
FC
88
84
84
82
81
00
30
10
20
ENDCHAR

STARTCHAR currency
ENCODING 164
SWIDTH 456 0
DWIDTH 7 0
BBX 5 8 1 1
BITMAP
88
A8
50
88
88
50
A8
88
ENDCHAR

STARTCHAR Itilde
ENCODING 165
SWIDTH 228 0
DWIDTH 3 0
BBX 5 14 -1 0
BITMAP
68
B0
00
20
20
20
20
20
20
20
20
20
20
20
ENDCHAR

STARTCHAR Lcommaaccent
ENCODING 166
SWIDTH 456 0
DWIDTH 7 0
BBX 5 15 1 -4
BITMAP
80
80
80
80
80
80
80
80
80
80
F8
00
60
20
40
ENDCHAR

STARTCHAR section
ENCODING 167
SWIDTH 456 0
DWIDTH 7 0
BBX 6 14 1 -3
BITMAP
38
44
44
40
70
88
84
84
64
18
08
84
44
38
ENDCHAR

STARTCHAR hungarumlaut
ENCODING 168
SWIDTH 273 0
DWIDTH 4 0
BBX 4 2 0 9
BITMAP
50
A0
ENDCHAR

STARTCHAR Scaron
ENCODING 169
SWIDTH 547 0
DWIDTH 8 0
BBX 6 14 1 0
BITMAP
68
30
00
78
84
84
80
60
18
04
04
84
84
78
ENDCHAR

STARTCHAR Emacron
ENCODING 170
SWIDTH 547 0
DWIDTH 8 0
BBX 6 13 1 0
BITMAP
F8
00
FC
80
80
80
80
FC
80
80
80
80
FC
ENDCHAR

STARTCHAR Gcommaaccent
ENCODING 171
SWIDTH 638 0
DWIDTH 10 0
BBX 8 15 1 -4
BITMAP
3C
42
81
80
80
80
8F
81
81
41
3E
00
18
08
10
ENDCHAR

STARTCHAR afii237
ENCODING 172
SWIDTH 614 0
DWIDTH 7 0
BBX 7 11 0 0
BITMAP
FE
10
10
10
10
FE
10
10
10
10
10
ENDCHAR

STARTCHAR hyphen
ENCODING 173
SWIDTH 273 0
DWIDTH 4 0
BBX 4 1 0 8
BITMAP
F0
ENDCHAR

STARTCHAR Zcaron
ENCODING 174
SWIDTH 501 0
DWIDTH 8 0
BBX 6 14 1 0
BITMAP
68
30
00
FC
04
08
08
10
20
20
40
40
80
FC
ENDCHAR

STARTCHAR macron
ENCODING 175
SWIDTH 273 0
DWIDTH 4 0
BBX 4 1 0 9
BITMAP
F0
ENDCHAR

STARTCHAR degree
ENCODING 176
SWIDTH 328 0
DWIDTH 5 0
BBX 4 4 1 7
BITMAP
60
90
90
60
ENDCHAR

STARTCHAR aogonek
ENCODING 177
SWIDTH 456 0
DWIDTH 7 0
BBX 7 11 1 -3
BITMAP
70
88
08
38
48
88
98
68
08
08
06
ENDCHAR

STARTCHAR ogonek
ENCODING 178
SWIDTH 273 0
DWIDTH 4 0
BBX 3 3 1 -3
BITMAP
80
80
60
ENDCHAR

STARTCHAR rcommaaccent
ENCODING 179
SWIDTH 273 0
DWIDTH 4 0
BBX 3 12 1 -4
BITMAP
A0
C0
80
80
80
80
80
80
00
C0
40
80
ENDCHAR

STARTCHAR acute
ENCODING 180
SWIDTH 273 0
DWIDTH 4 0
BBX 2 2 1 9
BITMAP
40
80
ENDCHAR

STARTCHAR itilde
ENCODING 181
SWIDTH 182 0
DWIDTH 3 0
BBX 5 11 -1 0
BITMAP
68
B0
00
20
20
20
20
20
20
20
20
ENDCHAR

STARTCHAR lcommaaccent
ENCODING 182
SWIDTH 182 0
DWIDTH 3 0
BBX 2 15 0 -4
BITMAP
40
40
40
40
40
40
40
40
40
40
40
00
C0
40
80
ENDCHAR

STARTCHAR caron
ENCODING 183
SWIDTH 273 0
DWIDTH 4 0
BBX 4 2 0 9
BITMAP
D0
60
ENDCHAR

STARTCHAR commaaccent
ENCODING 184
SWIDTH 331 0
DWIDTH 5 0
BBX 2 3 1 -4
BITMAP
C0
40
80
ENDCHAR

STARTCHAR scaron
ENCODING 185
SWIDTH 410 0
DWIDTH 6 0
BBX 4 11 1 0
BITMAP
D0
60
00
60
90
80
60
10
10
90
60
ENDCHAR

STARTCHAR emacron
ENCODING 186
SWIDTH 456 0
DWIDTH 7 0
BBX 5 10 1 0
BITMAP
F8
00
70
88
88
F8
80
88
88
70
ENDCHAR

STARTCHAR gcommaaccent
ENCODING 187
SWIDTH 456 0
DWIDTH 7 0
BBX 5 15 1 -3
BITMAP
10
20
30
00
68
98
88
88
88
88
98
68
08
88
70
ENDCHAR

STARTCHAR afii253
ENCODING 188
SWIDTH 280 0
DWIDTH 3 0
BBX 4 11 0 0
BITMAP
40
40
40
E0
40
40
F0
40
40
40
20
ENDCHAR

STARTCHAR afii238
ENCODING 189
SWIDTH 723 0
DWIDTH 9 0
BBX 7 11 1 0
BITMAP
B8
C4
82
82
82
82
82
82
82
A4
98
ENDCHAR

STARTCHAR zcaron
ENCODING 190
SWIDTH 410 0
DWIDTH 7 0
BBX 5 11 1 0
BITMAP
68
30
00
F8
10
20
20
40
40
80
F8
ENDCHAR

STARTCHAR afii254
ENCODING 191
SWIDTH 556 0
DWIDTH 7 0
BBX 5 11 1 -3
BITMAP
B0
C8
88
88
88
88
88
88
08
08
30
ENDCHAR

STARTCHAR Amacron
ENCODING 192
SWIDTH 547 0
DWIDTH 8 0
BBX 8 13 0 0
BITMAP
3C
00
18
18
24
24
24
42
7E
42
81
81
81
ENDCHAR

STARTCHAR Aacute
ENCODING 193
SWIDTH 547 0
DWIDTH 8 0
BBX 8 14 0 0
BITMAP
08
10
00
18
18
24
24
24
42
7E
42
81
81
81
ENDCHAR

STARTCHAR Acircumflex
ENCODING 194
SWIDTH 547 0
DWIDTH 8 0
BBX 8 14 0 0
BITMAP
18
34
00
18
18
24
24
24
42
7E
42
81
81
81
ENDCHAR

STARTCHAR Atilde
ENCODING 195
SWIDTH 547 0
DWIDTH 8 0
BBX 8 14 0 0
BITMAP
1A
2C
00
18
18
24
24
24
42
7E
42
81
81
81
ENDCHAR

STARTCHAR Adieresis
ENCODING 196
SWIDTH 547 0
DWIDTH 8 0
BBX 8 14 0 0
BITMAP
14
14
00
18
18
24
24
24
42
7E
42
81
81
81
ENDCHAR

STARTCHAR Aring
ENCODING 197
SWIDTH 547 0
DWIDTH 8 0
BBX 8 14 0 0
BITMAP
08
14
08
18
18
24
24
24
42
7E
42
81
81
81
ENDCHAR

STARTCHAR AE
ENCODING 198
SWIDTH 820 0
DWIDTH 12 0
BBX 11 11 1 0
BITMAP
1FE0
1C00
2400
2400
2400
47C0
7C00
4400
8400
8400
87E0
ENDCHAR

STARTCHAR Iogonek
ENCODING 199
SWIDTH 228 0
DWIDTH 3 0
BBX 3 14 1 -3
BITMAP
80
80
80
80
80
80
80
80
80
80
80
80
80
60
ENDCHAR

STARTCHAR Ccaron
ENCODING 200
SWIDTH 592 0
DWIDTH 9 0
BBX 7 14 1 0
BITMAP
34
18
00
38
44
82
80
80
80
80
80
82
44
38
ENDCHAR

STARTCHAR Eacute
ENCODING 201
SWIDTH 547 0
DWIDTH 8 0
BBX 6 14 1 0
BITMAP
08
10
00
FC
80
80
80
80
FC
80
80
80
80
FC
ENDCHAR

STARTCHAR Eogonek
ENCODING 202
SWIDTH 547 0
DWIDTH 8 0
BBX 6 14 1 -3
BITMAP
FC
80
80
80
80
FC
80
80
80
80
FC
10
10
0C
ENDCHAR

STARTCHAR Edieresis
ENCODING 203
SWIDTH 547 0
DWIDTH 8 0
BBX 6 14 1 0
BITMAP
28
28
00
FC
80
80
80
80
FC
80
80
80
80
FC
ENDCHAR

STARTCHAR Edotaccent
ENCODING 204
SWIDTH 547 0
DWIDTH 8 0
BBX 6 14 1 0
BITMAP
10
10
00
FC
80
80
80
80
FC
80
80
80
80
FC
ENDCHAR

STARTCHAR Iacute
ENCODING 205
SWIDTH 228 0
DWIDTH 3 0
BBX 2 14 1 0
BITMAP
40
80
00
80
80
80
80
80
80
80
80
80
80
80
ENDCHAR

STARTCHAR Icircumflex
ENCODING 206
SWIDTH 228 0
DWIDTH 3 0
BBX 4 14 0 0
BITMAP
60
B0
00
40
40
40
40
40
40
40
40
40
40
40
ENDCHAR

STARTCHAR Imacron
ENCODING 207
SWIDTH 228 0
DWIDTH 3 0
BBX 5 13 -1 0
BITMAP
F8
00
20
20
20
20
20
20
20
20
20
20
20
ENDCHAR

STARTCHAR Eth
ENCODING 208
SWIDTH 592 0
DWIDTH 9 0
BBX 8 11 0 0
BITMAP
7C
42
41
41
41
F1
41
41
41
42
7C
ENDCHAR

STARTCHAR Ncommaaccent
ENCODING 209
SWIDTH 592 0
DWIDTH 9 0
BBX 7 15 1 -4
BITMAP
82
C2
C2
A2
A2
92
92
8A
86
86
82
00
30
10
20
ENDCHAR

STARTCHAR Omacron
ENCODING 210
SWIDTH 638 0
DWIDTH 10 0
BBX 8 13 1 0
BITMAP
3C
00
3C
42
81
81
81
81
81
81
81
42
3C
ENDCHAR

STARTCHAR Kcommaaccent
ENCODING 211
SWIDTH 547 0
DWIDTH 8 0
BBX 7 15 1 -4
BITMAP
82
84
88
90
A0
A0
D0
88
88
84
82
00
30
10
20
ENDCHAR

STARTCHAR Ocircumflex
ENCODING 212
SWIDTH 638 0
DWIDTH 10 0
BBX 8 14 1 0
BITMAP
18
2C
00
3C
42
81
81
81
81
81
81
81
42
3C
ENDCHAR

STARTCHAR Otilde
ENCODING 213
SWIDTH 638 0
DWIDTH 10 0
BBX 8 14 1 0
BITMAP
1A
2C
00
3C
42
81
81
81
81
81
81
81
42
3C
ENDCHAR

STARTCHAR Odieresis
ENCODING 214
SWIDTH 638 0
DWIDTH 10 0
BBX 8 14 1 0
BITMAP
14
14
00
3C
42
81
81
81
81
81
81
81
42
3C
ENDCHAR

STARTCHAR multiply
ENCODING 215
SWIDTH 479 0
DWIDTH 7 0
BBX 5 7 1 2
BITMAP
88
88
50
20
50
88
88
ENDCHAR

STARTCHAR Oslash
ENCODING 216
SWIDTH 638 0
DWIDTH 10 0
BBX 8 11 1 0
BITMAP
3D
42
85
89
89
91
91
A1
A1
42
BC
ENDCHAR

STARTCHAR Uogonek
ENCODING 217
SWIDTH 592 0
DWIDTH 9 0
BBX 7 14 1 -3
BITMAP
82
82
82
82
82
82
82
82
82
44
38
10
10
0C
ENDCHAR

STARTCHAR Uacute
ENCODING 218
SWIDTH 592 0
DWIDTH 9 0
BBX 7 14 1 0
BITMAP
08
10
00
82
82
82
82
82
82
82
82
82
44
38
ENDCHAR

STARTCHAR Ucircumflex
ENCODING 219
SWIDTH 592 0
DWIDTH 9 0
BBX 7 14 1 0
BITMAP
18
2C
00
82
82
82
82
82
82
82
82
82
44
38
ENDCHAR

STARTCHAR Udieresis
ENCODING 220
SWIDTH 592 0
DWIDTH 9 0
BBX 7 14 1 0
BITMAP
28
28
00
82
82
82
82
82
82
82
82
82
44
38
ENDCHAR

STARTCHAR Utilde
ENCODING 221
SWIDTH 592 0
DWIDTH 9 0
BBX 7 14 1 0
BITMAP
34
58
00
82
82
82
82
82
82
82
82
82
44
38
ENDCHAR

STARTCHAR Umacron
ENCODING 222
SWIDTH 592 0
DWIDTH 9 0
BBX 7 13 1 0
BITMAP
7C
00
82
82
82
82
82
82
82
82
82
44
38
ENDCHAR

STARTCHAR germandbls
ENCODING 223
SWIDTH 501 0
DWIDTH 8 0
BBX 6 11 1 0
BITMAP
70
88
88
88
90
90
88
84
84
A4
98
ENDCHAR

STARTCHAR amacron
ENCODING 224
SWIDTH 456 0
DWIDTH 7 0
BBX 5 10 1 0
BITMAP
78
00
70
88
08
38
48
88
98
68
ENDCHAR

STARTCHAR aacute
ENCODING 225
SWIDTH 456 0
DWIDTH 7 0
BBX 5 11 1 0
BITMAP
10
20
00
70
88
08
38
48
88
98
68
ENDCHAR

STARTCHAR acircumflex
ENCODING 226
SWIDTH 456 0
DWIDTH 7 0
BBX 5 11 1 0
BITMAP
30
58
00
70
88
08
38
48
88
98
68
ENDCHAR

STARTCHAR atilde
ENCODING 227
SWIDTH 456 0
DWIDTH 7 0
BBX 5 11 1 0
BITMAP
68
B0
00
70
88
08
38
48
88
98
68
ENDCHAR

STARTCHAR adieresis
ENCODING 228
SWIDTH 456 0
DWIDTH 7 0
BBX 5 11 1 0
BITMAP
50
50
00
70
88
08
38
48
88
98
68
ENDCHAR

STARTCHAR aring
ENCODING 229
SWIDTH 456 0
DWIDTH 7 0
BBX 5 12 1 0
BITMAP
20
50
20
00
70
88
08
38
48
88
98
68
ENDCHAR

STARTCHAR ae
ENCODING 230
SWIDTH 729 0
DWIDTH 11 0
BBX 9 8 1 0
BITMAP
7700
8880
0880
3F80
4800
8880
9880
6F00
ENDCHAR

STARTCHAR iogonek
ENCODING 231
SWIDTH 182 0
DWIDTH 3 0
BBX 3 11 1 -3
BITMAP
80
80
80
80
80
80
80
80
80
80
60
ENDCHAR

STARTCHAR ccaron
ENCODING 232
SWIDTH 410 0
DWIDTH 6 0
BBX 5 11 1 0
BITMAP
68
30
00
70
88
88
80
80
88
88
70
ENDCHAR

STARTCHAR eacute
ENCODING 233
SWIDTH 456 0
DWIDTH 7 0
BBX 5 11 1 0
BITMAP
10
20
00
70
88
88
F8
80
88
88
70
ENDCHAR

STARTCHAR eogonek
ENCODING 234
SWIDTH 456 0
DWIDTH 7 0
BBX 5 11 1 -3
BITMAP
70
88
88
F8
80
88
88
70
20
20
18
ENDCHAR

STARTCHAR edieresis
ENCODING 235
SWIDTH 456 0
DWIDTH 7 0
BBX 5 11 1 0
BITMAP
50
50
00
70
88
88
F8
80
88
88
70
ENDCHAR

STARTCHAR edotaccent
ENCODING 236
SWIDTH 456 0
DWIDTH 7 0
BBX 5 11 1 0
BITMAP
20
20
00
70
88
88
F8
80
88
88
70
ENDCHAR

STARTCHAR iacute
ENCODING 237
SWIDTH 228 0
DWIDTH 3 0
BBX 2 11 1 0
BITMAP
40
80
00
80
80
80
80
80
80
80
80
ENDCHAR

STARTCHAR icircumflex
ENCODING 238
SWIDTH 228 0
DWIDTH 3 0
BBX 4 11 0 0
BITMAP
60
B0
00
40
40
40
40
40
40
40
40
ENDCHAR

STARTCHAR imacron
ENCODING 239
SWIDTH 228 0
DWIDTH 3 0
BBX 5 10 -1 0
BITMAP
F8
00
20
20
20
20
20
20
20
20
ENDCHAR

STARTCHAR dcroat
ENCODING 240
SWIDTH 456 0
DWIDTH 7 0
BBX 6 11 1 0
BITMAP
08
3C
08
68
98
88
88
88
88
98
68
ENDCHAR

STARTCHAR ncommaaccent
ENCODING 241
SWIDTH 456 0
DWIDTH 7 0
BBX 5 12 1 -4
BITMAP
B0
C8
88
88
88
88
88
88
00
60
20
40
ENDCHAR

STARTCHAR omacron
ENCODING 242
SWIDTH 456 0
DWIDTH 7 0
BBX 5 10 1 0
BITMAP
F8
00
70
88
88
88
88
88
88
70
ENDCHAR

STARTCHAR kcommaaccent
ENCODING 243
SWIDTH 410 0
DWIDTH 6 0
BBX 5 15 1 -4
BITMAP
80
80
80
88
90
A0
A0
D0
90
88
88
00
60
20
40
ENDCHAR

STARTCHAR ocircumflex
ENCODING 244
SWIDTH 456 0
DWIDTH 7 0
BBX 5 11 1 0
BITMAP
30
68
00
70
88
88
88
88
88
88
70
ENDCHAR

STARTCHAR otilde
ENCODING 245
SWIDTH 456 0
DWIDTH 7 0
BBX 6 11 1 0
BITMAP
34
58
00
70
88
88
88
88
88
88
70
ENDCHAR

STARTCHAR odieresis
ENCODING 246
SWIDTH 456 0
DWIDTH 7 0
BBX 5 11 1 0
BITMAP
50
50
00
70
88
88
88
88
88
88
70
ENDCHAR

STARTCHAR divide
ENCODING 247
SWIDTH 479 0
DWIDTH 7 0
BBX 5 7 1 3
BITMAP
20
20
00
F8
00
20
20
ENDCHAR

STARTCHAR oslash
ENCODING 248
SWIDTH 501 0
DWIDTH 7 0
BBX 5 8 1 0
BITMAP
78
98
98
A8
A8
C8
C8
F0
ENDCHAR

STARTCHAR uogonek
ENCODING 249
SWIDTH 456 0
DWIDTH 7 0
BBX 7 11 1 -3
BITMAP
88
88
88
88
88
88
98
68
08
08
06
ENDCHAR

STARTCHAR uacute
ENCODING 250
SWIDTH 456 0
DWIDTH 7 0
BBX 5 11 1 0
BITMAP
10
20
00
88
88
88
88
88
88
98
68
ENDCHAR

STARTCHAR ucircumflex
ENCODING 251
SWIDTH 456 0
DWIDTH 7 0
BBX 5 11 1 0
BITMAP
30
58
00
88
88
88
88
88
88
98
68
ENDCHAR

STARTCHAR udieresis
ENCODING 252
SWIDTH 456 0
DWIDTH 7 0
BBX 5 11 1 0
BITMAP
50
50
00
88
88
88
88
88
88
98
68
ENDCHAR

STARTCHAR utilde
ENCODING 253
SWIDTH 456 0
DWIDTH 7 0
BBX 5 11 1 0
BITMAP
68
B0
00
88
88
88
88
88
88
98
68
ENDCHAR

STARTCHAR umacron
ENCODING 254
SWIDTH 456 0
DWIDTH 7 0
BBX 5 10 1 0
BITMAP
F8
00
88
88
88
88
88
88
98
68
ENDCHAR

STARTCHAR dotaccent
ENCODING 255
SWIDTH 273 0
DWIDTH 4 0
BBX 1 2 2 9
BITMAP
80
80
ENDCHAR
ENDFONT
